<svg width="14" height="21" viewBox="0 0 14 21" fill="none" xmlns="http://www.w3.org/2000/svg">
<path d="M13.6284 14.5605C13.6284 16.3232 12.988 17.807 11.7072 19.0118C10.4264 20.2166 8.89569 20.819 7.11512 20.819C5.33455 20.819 3.80829 20.2166 2.53634 19.0118C1.26439 17.807 0.628418 16.3232 0.628418 14.5605V5.47967C0.628418 4.19395 1.09319 3.11094 2.02273 2.23062C2.95228 1.35031 4.06885 0.910156 5.37246 0.910156C6.67591 0.910156 7.78798 1.35031 8.70866 2.23062C9.62918 3.11094 10.0894 4.19395 10.0894 5.47967V14.0723C10.0894 14.8809 9.79809 15.5631 9.21538 16.1189C8.63283 16.6747 7.93275 16.9526 7.11512 16.9526C6.29734 16.9526 5.60168 16.6747 5.02816 16.1189C4.45448 15.5631 4.16763 14.8809 4.16763 14.0723V5.28663H6.55022V14.0723C6.55022 14.2245 6.60412 14.3476 6.71193 14.4418C6.81957 14.5362 6.95397 14.5833 7.11512 14.5833C7.27611 14.5833 7.41494 14.5384 7.53161 14.4485C7.64828 14.3587 7.70661 14.2333 7.70661 14.0723V5.49297C7.69981 4.86388 7.46853 4.33769 7.01278 3.91439C6.55719 3.49125 6.01042 3.27969 5.37246 3.27969C4.73435 3.27969 4.18133 3.48904 3.71339 3.90774C3.24529 4.32661 3.01125 4.85058 3.01125 5.47967V14.5605C3.00444 15.6666 3.40795 16.5913 4.22177 17.3347C5.0356 18.0779 6.00448 18.4495 7.12842 18.4495C8.24555 18.4495 9.20762 18.0779 10.0146 17.3347C10.8215 16.5913 11.2318 15.6666 11.2456 14.5605V4.77658H13.6284V14.5605Z" fill="#734012"/>
</svg>
