<svg width="18" height="19" viewBox="0 0 18 19" fill="none" xmlns="http://www.w3.org/2000/svg">
<path d="M8.9694 18.151C6.65297 18.151 4.63619 17.3821 2.91907 15.8442C1.20211 14.3063 0.229087 12.3826 0 10.073H2.5583C2.78961 11.6791 3.51044 13.0064 4.72081 14.0546C5.93118 15.1027 7.34737 15.6268 8.9694 15.6268C10.7819 15.6268 12.3194 14.9956 13.5819 13.7331C14.8445 12.4705 15.4758 10.933 15.4758 9.12044C15.4758 7.30791 14.8445 5.77034 13.5819 4.50775C12.3194 3.24531 10.7819 2.61409 8.9694 2.61409C7.98161 2.61409 7.04732 2.83 6.16654 3.26182C5.28591 3.69348 4.53356 4.30001 3.90948 5.08142H6.15225V7.21535H0.073346V1.1636H2.18037V3.20014C3.03497 2.20203 4.05014 1.43412 5.2259 0.896411C6.40182 0.358699 7.64965 0.0898438 8.9694 0.0898438C10.2139 0.0898438 11.3853 0.327265 12.4836 0.802108C13.5817 1.27711 14.5382 1.92198 15.3531 2.73673C16.1679 3.55163 16.8127 4.50814 17.2875 5.60627C17.7625 6.70455 18 7.87594 18 9.12044C18 10.3649 17.7625 11.5363 17.2875 12.6346C16.8127 13.7327 16.1679 14.6893 15.3531 15.5042C14.5382 16.3189 13.5817 16.9638 12.4836 17.4388C11.3853 17.9136 10.2139 18.151 8.9694 18.151ZM11.5691 13.2288L7.94946 9.6091V4.35772H10.0565V8.73943L13.0644 11.7338L11.5691 13.2288Z" fill="#734012"/>
</svg>
