<svg width="20" height="19" viewBox="0 0 20 19" fill="none" xmlns="http://www.w3.org/2000/svg">
<path d="M3.16465 18.9532C2.42632 18.9532 1.80007 18.6961 1.2859 18.1819C0.771732 17.6678 0.514648 17.0415 0.514648 16.3032V2.64219C0.514648 1.90385 0.771732 1.2776 1.2859 0.763437C1.80007 0.24927 2.42632 -0.0078125 3.16465 -0.0078125H16.8256C17.564 -0.0078125 18.1902 0.24927 18.7044 0.763437C19.2186 1.2776 19.4756 1.90385 19.4756 2.64219V16.3032C19.4756 17.0415 19.2186 17.6678 18.7044 18.1819C18.1902 18.6961 17.564 18.9532 16.8256 18.9532H3.16465ZM9.99515 15.3032C9.99515 15.8555 10.4429 16.3032 10.9951 16.3032H15.8256C16.3779 16.3032 16.8256 15.8555 16.8256 15.3032V3.64219C16.8256 3.0899 16.3779 2.64219 15.8256 2.64219H10.9951C10.4429 2.64219 9.99515 3.0899 9.99515 3.64219V15.3032Z" fill="#734012"/>
</svg>
