<svg width="16" height="17" viewBox="0 0 16 17" fill="none" xmlns="http://www.w3.org/2000/svg">
<path d="M1.77778 14.6636H3.04444L11.7333 5.97474L10.4667 4.70807L1.77778 13.397V14.6636ZM0 16.4414V12.6636L11.7333 0.952517C11.9111 0.789554 12.1074 0.663628 12.3222 0.57474C12.537 0.485851 12.763 0.441406 13 0.441406C13.237 0.441406 13.4667 0.485851 13.6889 0.57474C13.9111 0.663628 14.1037 0.796962 14.2667 0.97474L15.4889 2.21918C15.6667 2.38215 15.7963 2.57474 15.8778 2.79696C15.9593 3.01918 16 3.24141 16 3.46363C16 3.70067 15.9593 3.92659 15.8778 4.14141C15.7963 4.35622 15.6667 4.55252 15.4889 4.7303L3.77778 16.4414H0ZM11.0889 5.35252L10.4667 4.70807L11.7333 5.97474L11.0889 5.35252Z" fill="#734012"/>
</svg>
