<svg width="200" height="183" viewBox="0 0 200 183" fill="none" xmlns="http://www.w3.org/2000/svg">
<path d="M169.003 141.684C162.493 152.959 153.408 162.534 142.491 169.627C131.574 176.719 119.133 181.129 106.185 182.494C93.2385 183.86 80.1518 182.143 67.9949 177.484C55.8381 172.825 44.9559 165.356 36.2374 155.687C27.5189 146.018 21.2116 134.424 17.8307 121.852C14.4498 109.279 14.0912 96.0853 16.7843 83.3478C19.4773 70.6103 25.1456 58.6904 33.326 48.5623C41.5065 38.4346 51.9669 30.3854 63.8527 25.0729L80.691 62.7461C74.7481 65.4025 69.5179 69.427 65.4277 74.491C61.3375 79.5551 58.5033 85.5149 57.1567 91.8836C55.8102 98.2524 55.9896 104.849 57.6802 111.136C59.3704 117.422 62.5241 123.219 66.8832 128.053C71.2426 132.887 76.6837 136.622 82.762 138.952C88.8406 141.281 95.3839 142.14 101.858 141.457C108.331 140.774 114.551 138.57 120.01 135.023C125.469 131.477 130.011 126.689 133.266 121.052L169.003 141.684Z" fill="#006EFF"/>
<path d="M169.003 141.685C175.535 130.37 179.288 117.666 179.953 104.618C180.618 91.5697 178.175 78.5505 172.826 66.6306C167.477 54.7107 159.374 44.2312 149.185 36.0537C138.995 27.8764 127.01 22.235 114.215 19.5936L105.872 60.0065C112.27 61.3274 118.263 64.1481 123.357 68.2364C128.452 72.3251 132.503 77.5649 135.178 83.525C137.852 89.4848 139.073 95.9948 138.741 102.519C138.409 109.043 136.533 115.395 133.266 121.052L169.003 141.685Z" fill="#F66A00"/>
<path d="M116.449 20.0874C98.8479 15.9419 80.3718 17.6921 63.8617 25.0691L80.6956 62.7444C88.9508 59.0558 98.1887 58.1806 106.989 60.2534L116.449 20.0874Z" fill="#29B41A"/>
<path d="M0.694214 133.982C0.694214 126.993 6.35989 121.327 13.3488 121.327H38.2912C45.6852 121.327 51.6795 127.321 51.6795 134.715V146.636H13.3488C6.35989 146.636 0.694214 140.971 0.694214 133.982Z" fill="white" fill-opacity="0.701961"/>
<path d="M199.5 69.4249C199.5 62.4359 193.834 56.7703 186.845 56.7703H161.903C154.509 56.7703 148.515 62.7645 148.515 70.1585V82.0795H186.845C193.834 82.0795 199.5 76.4139 199.5 69.4249Z" fill="white" fill-opacity="0.701961"/>
<path d="M111.101 13.6712C111.101 6.27706 105.107 0.282959 97.7129 0.282959H88.5428C81.1489 0.282959 75.1546 6.27706 75.1546 13.6712V31.8278H97.7129C105.107 31.8278 111.101 25.8337 111.101 18.4396V13.6712Z" fill="white" fill-opacity="0.701961"/>
<path d="M7.20913 136.806C6.93472 136.804 6.66986 136.758 6.41456 136.667C6.16099 136.577 5.93347 136.431 5.73202 136.227C5.53054 136.024 5.37076 135.755 5.25269 135.42C5.1363 135.085 5.07812 134.673 5.07812 134.185C5.07985 133.737 5.13109 133.337 5.23181 132.984C5.3343 132.63 5.48018 132.329 5.66948 132.082C5.86055 131.836 6.08892 131.649 6.35463 131.52C6.62037 131.39 6.91822 131.325 7.24819 131.325C7.60421 131.325 7.91856 131.394 8.19123 131.533C8.46391 131.67 8.68275 131.857 8.84773 132.093C9.01444 132.329 9.1152 132.594 9.14994 132.888H8.03754C7.99411 132.702 7.90293 132.556 7.76398 132.45C7.62508 132.344 7.45312 132.291 7.24819 132.291C6.90083 132.291 6.63684 132.442 6.45623 132.744C6.27734 133.046 6.18616 133.457 6.18271 133.977H6.21917C6.29906 133.819 6.40675 133.684 6.54221 133.573C6.67939 133.46 6.83484 133.374 7.00852 133.315C7.18393 133.254 7.3689 133.224 7.56342 133.224C7.87949 133.224 8.16086 133.298 8.40746 133.448C8.6541 133.595 8.84861 133.798 8.99101 134.057C9.13343 134.316 9.20463 134.612 9.20463 134.946C9.20463 135.307 9.12041 135.628 8.95194 135.91C8.7852 136.191 8.55162 136.411 8.25117 136.571C7.95245 136.729 7.60509 136.808 7.20913 136.806ZM7.20392 135.92C7.37756 135.92 7.53301 135.878 7.67023 135.795C7.80742 135.712 7.91511 135.599 7.99324 135.456C8.0714 135.314 8.1105 135.154 8.1105 134.977C8.1105 134.8 8.0714 134.641 7.99324 134.5C7.91683 134.36 7.8109 134.247 7.67544 134.164C7.53998 134.081 7.38541 134.039 7.21173 134.039C7.08148 134.039 6.96077 134.064 6.84959 134.112C6.74021 134.161 6.64381 134.228 6.56044 134.315C6.47883 134.402 6.41456 134.503 6.36765 134.617C6.32077 134.73 6.29733 134.851 6.29733 134.979C6.29733 135.151 6.3364 135.308 6.41456 135.451C6.49445 135.593 6.60211 135.707 6.7376 135.792C6.87479 135.877 7.03024 135.92 7.20392 135.92ZM12.0963 136.85C11.6482 136.848 11.2627 136.738 10.9396 136.519C10.6184 136.3 10.3709 135.983 10.1972 135.568C10.0252 135.153 9.94014 134.654 9.94186 134.07C9.94186 133.488 10.0278 132.993 10.1998 132.583C10.3735 132.173 10.621 131.861 10.9422 131.647C11.2653 131.432 11.65 131.325 12.0963 131.325C12.5427 131.325 12.9265 131.432 13.2478 131.647C13.5708 131.863 13.8192 132.176 13.9928 132.585C14.1665 132.994 14.2525 133.488 14.2507 134.07C14.2507 134.656 14.1639 135.156 13.9902 135.571C13.8183 135.986 13.5717 136.303 13.2504 136.522C12.9291 136.74 12.5444 136.85 12.0963 136.85ZM12.0963 135.915C12.402 135.915 12.646 135.761 12.8284 135.454C13.0107 135.146 13.101 134.685 13.0993 134.07C13.0993 133.666 13.0576 133.329 12.9742 133.06C12.8926 132.79 12.7762 132.588 12.6252 132.453C12.4758 132.317 12.2995 132.249 12.0963 132.249C11.7924 132.249 11.5493 132.401 11.3669 132.705C11.1845 133.009 11.0925 133.464 11.0908 134.07C11.0908 134.48 11.1315 134.822 11.2132 135.097C11.2965 135.369 11.4138 135.574 11.5649 135.712C11.716 135.847 11.8931 135.915 12.0963 135.915ZM17.9754 135.732V135.451C17.9754 135.237 18.0206 135.041 18.1109 134.862C18.2029 134.682 18.3358 134.537 18.5094 134.43C18.6849 134.32 18.8985 134.266 19.1503 134.266C19.4056 134.266 19.6201 134.32 19.7938 134.427C19.9692 134.535 20.1012 134.679 20.1898 134.86C20.2801 135.039 20.3252 135.236 20.3252 135.451V135.732C20.3252 135.946 20.2801 136.143 20.1898 136.324C20.0994 136.503 19.9666 136.646 19.7912 136.754C19.6157 136.863 19.4022 136.918 19.1503 136.918C18.895 136.918 18.6805 136.863 18.5068 136.754C18.3332 136.646 18.2012 136.503 18.1109 136.324C18.0206 136.143 17.9754 135.946 17.9754 135.732ZM18.7335 135.451V135.732C18.7335 135.856 18.763 135.972 18.8221 136.081C18.8828 136.191 18.9923 136.246 19.1503 136.246C19.3084 136.246 19.416 136.192 19.4734 136.084C19.5324 135.976 19.5619 135.859 19.5619 135.732V135.451C19.5619 135.324 19.5341 135.206 19.4786 135.097C19.423 134.987 19.3136 134.932 19.1503 134.932C18.994 134.932 18.8854 134.987 18.8247 135.097C18.7639 135.206 18.7335 135.324 18.7335 135.451ZM15.2374 132.679V132.398C15.2374 132.183 15.2835 131.985 15.3755 131.807C15.4676 131.626 15.6004 131.482 15.7741 131.374C15.9495 131.266 16.1614 131.212 16.4097 131.212C16.6668 131.212 16.8821 131.266 17.0558 131.374C17.2295 131.482 17.3615 131.626 17.4518 131.807C17.5421 131.985 17.5872 132.183 17.5872 132.398V132.679C17.5872 132.895 17.5412 133.092 17.4492 133.271C17.3589 133.45 17.226 133.593 17.0506 133.7C16.8769 133.806 16.6633 133.859 16.4097 133.859C16.1562 133.859 15.9417 133.805 15.7663 133.698C15.5926 133.589 15.4606 133.445 15.3703 133.268C15.2817 133.089 15.2374 132.893 15.2374 132.679ZM16.0007 132.398V132.679C16.0007 132.806 16.0303 132.923 16.0893 133.031C16.1501 133.138 16.2569 133.192 16.4097 133.192C16.5695 133.192 16.678 133.138 16.7354 133.031C16.7944 132.923 16.824 132.806 16.824 132.679V132.398C16.824 132.271 16.7961 132.153 16.7406 132.044C16.685 131.934 16.5747 131.879 16.4097 131.879C16.2552 131.879 16.1483 131.935 16.0893 132.046C16.0303 132.157 16.0007 132.275 16.0007 132.398ZM15.5813 136.733L19.2493 131.398H19.9319L16.2638 136.733H15.5813ZM25.9829 132.932C25.9621 132.722 25.8726 132.559 25.7146 132.442C25.5565 132.326 25.342 132.268 25.0711 132.268C24.887 132.268 24.7315 132.294 24.6048 132.346C24.478 132.396 24.3807 132.467 24.313 132.557C24.247 132.647 24.214 132.75 24.214 132.864C24.2105 132.96 24.2305 133.043 24.2739 133.114C24.3191 133.185 24.3807 133.247 24.4589 133.299C24.537 133.35 24.6273 133.394 24.7298 133.432C24.8323 133.469 24.9417 133.5 25.0581 133.526L25.5374 133.641C25.7701 133.693 25.9838 133.762 26.1783 133.849C26.3728 133.936 26.5412 134.043 26.6837 134.169C26.8261 134.296 26.9363 134.445 27.0145 134.617C27.0944 134.789 27.1352 134.986 27.137 135.209C27.1352 135.535 27.0519 135.818 26.8869 136.058C26.7236 136.296 26.4874 136.481 26.1783 136.613C25.8709 136.743 25.5001 136.808 25.0659 136.808C24.6352 136.808 24.26 136.742 23.9405 136.61C23.6226 136.478 23.3743 136.283 23.1954 136.024C23.0183 135.764 22.9253 135.442 22.9167 135.058H24.0082C24.0204 135.237 24.0716 135.386 24.1619 135.506C24.254 135.624 24.3764 135.713 24.5292 135.774C24.6838 135.833 24.8583 135.863 25.0529 135.863C25.2439 135.863 25.4098 135.835 25.5504 135.779C25.6929 135.724 25.8031 135.646 25.8813 135.547C25.9594 135.449 25.9985 135.334 25.9985 135.206C25.9985 135.086 25.9629 134.986 25.8917 134.904C25.8222 134.822 25.7198 134.753 25.5843 134.696C25.4506 134.638 25.2864 134.586 25.0919 134.539L24.511 134.393C24.0612 134.284 23.706 134.113 23.4455 133.88C23.185 133.648 23.0556 133.334 23.0573 132.94C23.0556 132.617 23.1416 132.334 23.3153 132.093C23.4907 131.852 23.7312 131.663 24.0369 131.528C24.3425 131.392 24.6899 131.325 25.0789 131.325C25.4749 131.325 25.8205 131.392 26.1157 131.528C26.4127 131.663 26.6437 131.852 26.8087 132.093C26.9737 132.334 27.0588 132.614 27.064 132.932H25.9829ZM30.0032 132.731V133.565H27.5935V132.731H30.0032ZM28.1406 131.772H29.2503V135.503C29.2503 135.606 29.266 135.686 29.2973 135.743C29.3285 135.799 29.3719 135.837 29.4275 135.86C29.4848 135.883 29.5508 135.894 29.6255 135.894C29.6776 135.894 29.7297 135.889 29.7818 135.881C29.8339 135.87 29.8738 135.863 29.9016 135.858L30.0762 136.683C30.0206 136.7 29.9425 136.721 29.8417 136.743C29.741 136.768 29.6185 136.782 29.4744 136.787C29.2069 136.798 28.9725 136.762 28.771 136.681C28.5713 136.599 28.4158 136.472 28.3047 136.3C28.1936 136.128 28.1388 135.911 28.1406 135.649V131.772ZM32.4911 136.811C32.0864 136.811 31.7365 136.725 31.4412 136.553C31.1477 136.379 30.9211 136.138 30.7613 135.829C30.6015 135.518 30.5216 135.157 30.5216 134.748C30.5216 134.334 30.6015 133.973 30.7613 133.664C30.9211 133.353 31.1477 133.112 31.4412 132.94C31.7365 132.766 32.0864 132.679 32.4911 132.679C32.8958 132.679 33.2449 132.766 33.5384 132.94C33.8336 133.112 34.0611 133.353 34.2209 133.664C34.3807 133.973 34.4606 134.334 34.4606 134.748C34.4606 135.157 34.3807 135.518 34.2209 135.829C34.0611 136.138 33.8336 136.379 33.5384 136.553C33.2449 136.725 32.8958 136.811 32.4911 136.811ZM32.4963 135.951C32.6804 135.951 32.8341 135.899 32.9574 135.795C33.0807 135.689 33.1736 135.545 33.2362 135.362C33.3004 135.18 33.3326 134.972 33.3326 134.74C33.3326 134.507 33.3004 134.299 33.2362 134.117C33.1736 133.935 33.0807 133.791 32.9574 133.685C32.8341 133.579 32.6804 133.526 32.4963 133.526C32.3105 133.526 32.1542 133.579 32.0274 133.685C31.9023 133.791 31.8077 133.935 31.7434 134.117C31.6809 134.299 31.6497 134.507 31.6497 134.74C31.6497 134.972 31.6809 135.18 31.7434 135.362C31.8077 135.545 31.9023 135.689 32.0274 135.795C32.1542 135.899 32.3105 135.951 32.4963 135.951ZM36.9902 136.811C36.5803 136.811 36.2277 136.724 35.9325 136.55C35.639 136.375 35.4132 136.132 35.2552 135.821C35.0988 135.51 35.0207 135.152 35.0207 134.748C35.0207 134.338 35.0997 133.978 35.2578 133.669C35.4175 133.358 35.6442 133.116 35.9377 132.942C36.2312 132.767 36.5803 132.679 36.985 132.679C37.334 132.679 37.6398 132.743 37.9021 132.869C38.1644 132.996 38.3716 133.174 38.5246 133.403C38.6775 133.633 38.7615 133.902 38.7773 134.211H37.7301C37.7004 134.011 37.6222 133.851 37.4957 133.729C37.3705 133.606 37.2064 133.544 37.0032 133.544C36.8312 133.544 36.681 133.591 36.5525 133.685C36.4257 133.777 36.3267 133.911 36.2555 134.088C36.1843 134.266 36.1487 134.48 36.1487 134.732C36.1487 134.987 36.1834 135.204 36.2529 135.383C36.3241 135.562 36.424 135.698 36.5525 135.792C36.681 135.886 36.8312 135.933 37.0032 135.933C37.1299 135.933 37.2437 135.907 37.3445 135.855C37.4469 135.803 37.5313 135.727 37.5973 135.628C37.6648 135.527 37.7092 135.407 37.7301 135.266H38.7773C38.76 135.572 38.6764 135.841 38.5271 136.074C38.3797 136.305 38.1754 136.485 37.9149 136.615C37.6545 136.746 37.3462 136.811 36.9902 136.811ZM40.4935 135.581L40.4961 134.25H40.6575L41.9391 132.731H43.213L41.4912 134.742H41.2279L40.4935 135.581ZM39.4878 136.733V131.398H40.5977V136.733H39.4878ZM41.9886 136.733L40.8112 134.99L41.551 134.206L43.2886 136.733H41.9886ZM47.0868 133.872L46.0711 133.935C46.0535 133.848 46.0161 133.77 45.9589 133.7C45.9017 133.629 45.8261 133.573 45.7322 133.531C45.6401 133.488 45.5301 133.466 45.4013 133.466C45.2293 133.466 45.0844 133.502 44.9663 133.575C44.8482 133.646 44.7891 133.742 44.7891 133.862C44.7891 133.958 44.8273 134.038 44.904 134.104C44.9803 134.17 45.1116 134.223 45.2972 134.263L46.0216 134.409C46.4104 134.489 46.7005 134.617 46.8916 134.795C47.0828 134.972 47.1781 135.204 47.1781 135.493C47.1781 135.755 47.1007 135.985 46.9463 136.183C46.7933 136.381 46.5832 136.536 46.3158 136.647C46.0502 136.756 45.7436 136.811 45.3962 136.811C44.8665 136.811 44.4444 136.7 44.13 136.48C43.8175 136.258 43.6345 135.956 43.5805 135.573L44.6721 135.516C44.7051 135.678 44.7847 135.801 44.9117 135.886C45.0386 135.969 45.2007 136.011 45.3988 136.011C45.5932 136.011 45.7498 135.974 45.8679 135.899C45.9875 135.823 46.0484 135.724 46.0502 135.605C46.0484 135.504 46.0058 135.421 45.9226 135.357C45.8389 135.291 45.7106 135.241 45.5371 135.206L44.8438 135.068C44.4532 134.99 44.1623 134.854 43.9712 134.662C43.7819 134.469 43.6873 134.223 43.6873 133.925C43.6873 133.667 43.7566 133.446 43.8956 133.26C44.0365 133.074 44.2334 132.931 44.4869 132.83C44.7422 132.729 45.0411 132.679 45.3834 132.679C45.8884 132.679 46.2864 132.786 46.5762 132.999C46.8682 133.213 47.0384 133.504 47.0868 133.872Z" fill="#006EFF"/>
<path d="M154.954 72.2489C154.565 72.2489 154.218 72.1821 153.915 72.0482C153.613 71.9129 153.374 71.7269 153.198 71.4907C153.025 71.2526 152.935 70.9783 152.93 70.6676H154.066C154.072 70.7978 154.115 70.9122 154.194 71.0113C154.273 71.1085 154.379 71.184 154.511 71.238C154.643 71.2919 154.792 71.3187 154.956 71.3187C155.128 71.3187 155.281 71.2882 155.412 71.2277C155.544 71.1668 155.648 71.0824 155.723 70.975C155.797 70.8671 155.835 70.7431 155.835 70.6023C155.835 70.46 155.795 70.3342 155.715 70.2245C155.636 70.1133 155.524 70.0268 155.376 69.9641C155.23 69.9017 155.057 69.8702 154.855 69.8702H154.357V69.0419H154.855C155.025 69.0419 155.175 69.0122 155.306 68.9532C155.438 68.8945 155.54 68.8127 155.613 68.7085C155.686 68.6025 155.723 68.4792 155.723 68.3384C155.723 68.2049 155.69 68.0875 155.626 67.987C155.564 67.8843 155.475 67.8043 155.36 67.7471C155.248 67.6899 155.116 67.6613 154.965 67.6613C154.812 67.6613 154.672 67.6892 154.545 67.7446C154.418 67.7985 154.317 67.8759 154.24 67.9764C154.164 68.0772 154.123 68.1953 154.118 68.3307H153.037C153.042 68.0233 153.129 67.7523 153.3 67.5179C153.47 67.2835 153.699 67.1001 153.987 66.9684C154.278 66.8345 154.605 66.7678 154.97 66.7678C155.338 66.7678 155.66 66.8345 155.936 66.9684C156.212 67.1019 156.427 67.2828 156.58 67.5102C156.734 67.7358 156.811 67.9896 156.809 68.2709C156.811 68.5695 156.718 68.8189 156.53 69.0184C156.344 69.2184 156.102 69.3449 155.803 69.3988V69.4406C156.196 69.4909 156.494 69.6273 156.7 69.8496C156.906 70.0701 157.009 70.3463 157.007 70.6779C157.009 70.9819 156.921 71.2519 156.744 71.4881C156.568 71.7243 156.326 71.9103 156.017 72.0456C155.708 72.181 155.353 72.2489 154.954 72.2489ZM159.91 72.2932C159.462 72.2914 159.076 72.181 158.753 71.9624C158.432 71.7434 158.184 71.4265 158.01 71.0113C157.838 70.5964 157.753 70.0968 157.755 69.5133C157.755 68.9315 157.841 68.436 158.013 68.0259C158.187 67.6162 158.434 67.3044 158.755 67.0906C159.079 66.8752 159.463 66.7678 159.91 66.7678C160.356 66.7678 160.74 66.8752 161.061 67.0906C161.384 67.3059 161.633 67.6187 161.806 68.0285C161.98 68.4367 162.066 68.9315 162.064 69.5133C162.064 70.0987 161.977 70.599 161.804 71.0138C161.632 71.4291 161.385 71.746 161.064 71.965C160.742 72.1836 160.358 72.2932 159.91 72.2932ZM159.91 71.3579C160.215 71.3579 160.459 71.2042 160.642 70.8968C160.824 70.5895 160.914 70.1284 160.913 69.5133C160.913 69.1087 160.871 68.772 160.787 68.5027C160.706 68.2335 160.589 68.031 160.438 67.8957C160.289 67.7603 160.113 67.6925 159.91 67.6925C159.606 67.6925 159.362 67.8443 159.18 68.1484C158.998 68.4521 158.906 68.9073 158.904 69.5133C158.904 69.9233 158.945 70.2656 159.026 70.5399C159.11 70.8125 159.227 71.0175 159.378 71.1547C159.529 71.29 159.707 71.3579 159.91 71.3579ZM165.789 71.1756V70.8943C165.789 70.6804 165.834 70.4842 165.924 70.3056C166.016 70.1247 166.149 69.9806 166.323 69.8731C166.498 69.7634 166.712 69.7088 166.964 69.7088C167.219 69.7088 167.434 69.7627 167.607 69.8702C167.782 69.978 167.914 70.1221 168.003 70.3026C168.093 70.4816 168.139 70.679 168.139 70.8943V71.1756C168.139 71.3891 168.093 71.5864 168.003 71.7669C167.913 71.9459 167.78 72.0889 167.604 72.1968C167.429 72.3061 167.215 72.3607 166.964 72.3607C166.708 72.3607 166.494 72.3061 166.32 72.1968C166.146 72.0889 166.014 71.9459 165.924 71.7669C165.834 71.5864 165.789 71.3891 165.789 71.1756ZM166.547 70.8943V71.1756C166.547 71.2988 166.576 71.4151 166.635 71.5244C166.696 71.6341 166.806 71.6887 166.964 71.6887C167.122 71.6887 167.229 71.6348 167.287 71.5274C167.346 71.4195 167.375 71.3021 167.375 71.1756V70.8943C167.375 70.7674 167.347 70.6492 167.292 70.5399C167.236 70.4303 167.127 70.3756 166.964 70.3756C166.807 70.3756 166.699 70.4303 166.638 70.5399C166.577 70.6492 166.547 70.7674 166.547 70.8943ZM163.051 68.1223V67.841C163.051 67.6257 163.097 67.4284 163.189 67.2497C163.281 67.0689 163.414 66.9248 163.587 66.8173C163.763 66.7094 163.975 66.6555 164.223 66.6555C164.48 66.6555 164.695 66.7094 164.869 66.8173C165.043 66.9248 165.175 67.0689 165.265 67.2497C165.355 67.4284 165.401 67.6257 165.401 67.841V68.1223C165.401 68.3377 165.354 68.5346 165.262 68.7136C165.172 68.8926 165.039 69.0357 164.864 69.1435C164.69 69.2495 164.477 69.3024 164.223 69.3024C163.969 69.3024 163.755 69.2484 163.58 69.141C163.406 69.0317 163.274 68.8882 163.183 68.7111C163.095 68.5321 163.051 68.3358 163.051 68.1223ZM163.814 67.841V68.1223C163.814 68.2493 163.844 68.3663 163.903 68.4741C163.963 68.5816 164.07 68.6355 164.223 68.6355C164.383 68.6355 164.491 68.5816 164.549 68.4741C164.608 68.3663 164.637 68.2493 164.637 68.1223V67.841C164.637 67.7141 164.61 67.596 164.554 67.4867C164.498 67.3774 164.388 67.3224 164.223 67.3224C164.069 67.3224 163.962 67.3781 163.903 67.4893C163.844 67.6004 163.814 67.7178 163.814 67.841ZM163.395 72.1759L167.063 66.8407H167.745L164.077 72.1759H163.395ZM170.902 72.1759V66.8407H173.038C173.431 66.8407 173.758 66.8987 174.02 67.015C174.282 67.1316 174.48 67.293 174.611 67.4995C174.743 67.7046 174.81 67.9408 174.81 68.2082C174.81 68.4165 174.768 68.5999 174.684 68.758C174.601 68.9143 174.486 69.0427 174.341 69.1435C174.197 69.2426 174.032 69.313 173.846 69.3544V69.4065C174.049 69.4153 174.239 69.4725 174.416 69.5786C174.595 69.6845 174.74 69.8331 174.851 70.0242C174.962 70.2135 175.018 70.4391 175.018 70.7013C175.018 70.9845 174.948 71.2372 174.807 71.4595C174.668 71.68 174.462 71.8546 174.19 71.9829C173.917 72.1117 173.581 72.1759 173.181 72.1759H170.902ZM172.03 71.2537H172.949C173.264 71.2537 173.493 71.1936 173.637 71.074C173.781 70.9522 173.854 70.7908 173.854 70.5895C173.854 70.4416 173.818 70.3114 173.747 70.1984C173.675 70.0858 173.574 69.9971 173.442 69.9329C173.312 69.8687 173.156 69.8364 172.976 69.8364H172.03V71.2537ZM172.03 69.0731H172.866C173.021 69.0731 173.158 69.0463 173.278 68.9924C173.399 68.937 173.495 68.8585 173.564 68.758C173.635 68.6571 173.671 68.5365 173.671 68.396C173.671 68.2031 173.602 68.0475 173.465 67.9294C173.33 67.8113 173.137 67.7523 172.887 67.7523H172.03V69.0731ZM177.539 72.254C177.134 72.254 176.784 72.1682 176.489 71.9961C176.196 71.8223 175.969 71.5809 175.809 71.2721C175.649 70.961 175.57 70.6005 175.57 70.1907C175.57 69.7774 175.649 69.4161 175.809 69.1072C175.969 68.7962 176.196 68.5548 176.489 68.3828C176.784 68.2093 177.134 68.1223 177.539 68.1223C177.944 68.1223 178.293 68.2093 178.586 68.3828C178.882 68.5548 179.109 68.7962 179.269 69.1072C179.429 69.4161 179.509 69.7774 179.509 70.1907C179.509 70.6005 179.429 70.961 179.269 71.2721C179.109 71.5809 178.882 71.8223 178.586 71.9961C178.293 72.1682 177.944 72.254 177.539 72.254ZM177.544 71.3942C177.729 71.3942 177.882 71.3421 178.005 71.238C178.129 71.132 178.222 70.9878 178.284 70.8055C178.348 70.6232 178.381 70.4156 178.381 70.183C178.381 69.9501 178.348 69.7425 178.284 69.5602C178.222 69.3779 178.129 69.2338 178.005 69.1278C177.882 69.0221 177.729 68.9689 177.544 68.9689C177.358 68.9689 177.202 69.0221 177.075 69.1278C176.95 69.2338 176.856 69.3779 176.791 69.5602C176.729 69.7425 176.698 69.9501 176.698 70.183C176.698 70.4156 176.729 70.6232 176.791 70.8055C176.856 70.9878 176.95 71.132 177.075 71.238C177.202 71.3421 177.358 71.3942 177.544 71.3942ZM181.34 69.8624V72.1759H180.23V68.1744H181.288V68.8805H181.335C181.423 68.6476 181.572 68.4635 181.78 68.3281C181.989 68.191 182.241 68.1223 182.538 68.1223C182.816 68.1223 183.059 68.1832 183.265 68.3047C183.472 68.4261 183.633 68.5999 183.747 68.8255C183.862 69.0496 183.919 69.317 183.919 69.6281V72.1759H182.809V69.8261C182.811 69.5811 182.749 69.39 182.622 69.2528C182.495 69.1138 182.32 69.0445 182.098 69.0445C181.949 69.0445 181.817 69.0768 181.702 69.141C181.589 69.2051 181.501 69.299 181.436 69.4223C181.374 69.5437 181.342 69.6904 181.34 69.8624ZM186.268 72.2411C185.964 72.2411 185.689 72.1627 185.442 72.0064C185.197 71.8483 185.003 71.6165 184.859 71.3109C184.716 71.0036 184.645 70.6269 184.645 70.1805C184.645 69.722 184.719 69.3405 184.866 69.0368C185.014 68.7309 185.211 68.5027 185.456 68.3516C185.702 68.1986 185.972 68.1223 186.265 68.1223C186.49 68.1223 186.676 68.1605 186.826 68.2368C186.977 68.3116 187.098 68.4055 187.191 68.5181C187.284 68.6293 187.356 68.7389 187.404 68.8464H187.438V66.8407H188.545V72.1759H187.451V71.5351H187.404C187.352 71.6462 187.278 71.7566 187.182 71.8659C187.089 71.9734 186.966 72.0629 186.815 72.1341C186.666 72.2052 186.484 72.2411 186.268 72.2411ZM186.62 71.3579C186.799 71.3579 186.95 71.3091 187.073 71.2119C187.198 71.1129 187.294 70.975 187.36 70.7978C187.427 70.6206 187.461 70.413 187.461 70.175C187.461 69.9373 187.428 69.7304 187.362 69.5551C187.297 69.3797 187.201 69.2444 187.076 69.1487C186.951 69.0533 186.799 69.0056 186.62 69.0056C186.437 69.0056 186.284 69.0548 186.159 69.1538C186.034 69.2528 185.939 69.39 185.875 69.5657C185.811 69.741 185.778 69.9443 185.778 70.175C185.778 70.4079 185.811 70.6137 185.875 70.7927C185.941 70.9698 186.035 71.1085 186.159 71.2093C186.284 71.3084 186.437 71.3579 186.62 71.3579ZM192.787 69.3156L191.771 69.3779C191.754 69.291 191.716 69.2128 191.659 69.1435C191.602 69.0724 191.526 69.0159 191.432 68.9741C191.34 68.9308 191.23 68.9091 191.101 68.9091C190.929 68.9091 190.784 68.9455 190.666 69.0184C190.548 69.0896 190.489 69.1853 190.489 69.3049C190.489 69.4007 190.527 69.4814 190.604 69.5474C190.68 69.6134 190.811 69.6662 190.997 69.7062L191.721 69.8522C192.11 69.9322 192.401 70.0605 192.591 70.2377C192.782 70.4149 192.878 70.6474 192.878 70.9357C192.878 71.198 192.801 71.4283 192.646 71.626C192.493 71.8241 192.283 71.9789 192.016 72.09C191.75 72.1993 191.444 72.254 191.096 72.254C190.567 72.254 190.144 72.1436 189.83 71.9231C189.517 71.7009 189.334 71.3986 189.28 71.0164L190.372 70.9592C190.405 71.1209 190.485 71.2442 190.612 71.3293C190.738 71.4126 190.901 71.4544 191.099 71.4544C191.293 71.4544 191.449 71.4169 191.568 71.3421C191.687 71.2658 191.748 71.1675 191.75 71.048C191.748 70.9471 191.706 70.8646 191.622 70.8004C191.539 70.7343 191.411 70.6841 191.237 70.6492L190.544 70.5113C190.153 70.4332 189.862 70.2975 189.671 70.1049C189.482 69.912 189.387 69.6662 189.387 69.3676C189.387 69.1105 189.457 68.889 189.596 68.7034C189.736 68.5174 189.933 68.374 190.187 68.2735C190.442 68.1726 190.741 68.1223 191.083 68.1223C191.588 68.1223 191.986 68.2291 192.276 68.4426C192.568 68.6564 192.738 68.9473 192.787 69.3156Z" fill="#F66A00"/>
<path d="M86.3446 8.88611V14.2214H85.2167V9.95684H85.1855L83.9637 10.7227V9.72238L85.2842 8.88611H86.3446ZM89.7045 14.3386C89.2566 14.3369 88.8711 14.2266 88.548 14.0078C88.2266 13.7889 87.979 13.472 87.8056 13.0569C87.6335 12.6419 87.5484 12.1425 87.5503 11.559C87.5503 10.9772 87.6361 10.4813 87.8081 10.0715C87.9816 9.6616 88.2292 9.34982 88.5505 9.13623C88.8737 8.92085 89.2581 8.81319 89.7045 8.81319C90.1509 8.81319 90.5349 8.92085 90.8559 9.13623C91.179 9.35158 91.4273 9.6642 91.6012 10.0741C91.7747 10.4822 91.8609 10.9772 91.8591 11.559C91.8591 12.1443 91.7721 12.6445 91.5986 13.0595C91.4266 13.4746 91.1801 13.7916 90.8588 14.0104C90.5375 14.2292 90.1527 14.3386 89.7045 14.3386ZM89.7045 13.4034C90.0104 13.4034 90.2543 13.2497 90.4366 12.9423C90.6189 12.6349 90.7091 12.1738 90.7077 11.559C90.7077 11.1543 90.6658 10.8174 90.5826 10.5482C90.5008 10.279 90.3845 10.0767 90.2334 9.94121C90.0841 9.80572 89.9077 9.738 89.7045 9.738C89.4008 9.738 89.1576 9.88997 88.9753 10.1939C88.7926 10.4978 88.7009 10.9528 88.6991 11.559C88.6991 11.9688 88.7398 12.311 88.8216 12.5854C88.9049 12.858 89.0219 13.063 89.173 13.2002C89.3241 13.3357 89.5013 13.4034 89.7045 13.4034ZM95.5835 13.221V12.9397C95.5835 12.7261 95.6287 12.5298 95.7193 12.3509C95.8113 12.1703 95.9441 12.0262 96.1176 11.9185C96.2929 11.8091 96.5068 11.7543 96.7584 11.7543C97.0137 11.7543 97.2283 11.8082 97.4021 11.9159C97.5775 12.0235 97.7095 12.1677 97.7979 12.3483C97.8882 12.5272 97.9336 12.7243 97.9336 12.9397V13.221C97.9336 13.4347 97.8882 13.6318 97.7979 13.8124C97.7077 13.9913 97.5749 14.1346 97.3996 14.2422C97.2239 14.3517 97.0104 14.4064 96.7584 14.4064C96.5031 14.4064 96.2889 14.3517 96.1151 14.2422C95.9415 14.1346 95.8095 13.9913 95.7193 13.8124C95.6287 13.6318 95.5835 13.4347 95.5835 13.221ZM96.3417 12.9397V13.221C96.3417 13.3443 96.3714 13.4607 96.4305 13.5701C96.491 13.6795 96.6007 13.7343 96.7584 13.7343C96.9165 13.7343 97.0243 13.6804 97.0816 13.5727C97.1406 13.4651 97.1703 13.3478 97.1703 13.221V12.9397C97.1703 12.8129 97.1425 12.6948 97.0867 12.5854C97.0313 12.476 96.922 12.4213 96.7584 12.4213C96.6022 12.4213 96.4936 12.476 96.4331 12.5854C96.3722 12.6948 96.3417 12.8129 96.3417 12.9397ZM92.8458 10.1679V9.88649C92.8458 9.67114 92.8916 9.47402 92.9837 9.29513C93.0757 9.11452 93.2085 8.97037 93.3824 8.86267C93.5577 8.75502 93.7697 8.70117 94.0181 8.70117C94.2752 8.70117 94.4905 8.75502 94.664 8.86267C94.8378 8.97037 94.9699 9.11452 95.0601 9.29513C95.1504 9.47402 95.1955 9.67114 95.1955 9.88649V10.1679C95.1955 10.3832 95.1496 10.5803 95.0576 10.7592C94.967 10.9381 94.8342 11.0814 94.6588 11.1891C94.4853 11.295 94.2715 11.348 94.0181 11.348C93.7646 11.348 93.55 11.2941 93.3747 11.1865C93.2008 11.077 93.0688 10.9337 92.9785 10.7566C92.8901 10.5777 92.8458 10.3814 92.8458 10.1679ZM93.6091 9.88649V10.1679C93.6091 10.2946 93.6384 10.4119 93.6975 10.5195C93.7584 10.6272 93.8651 10.681 94.0181 10.681C94.1776 10.681 94.2862 10.6272 94.3438 10.5195C94.4028 10.4119 94.4322 10.2946 94.4322 10.1679V9.88649C94.4322 9.75972 94.4043 9.64161 94.3489 9.53219C94.2931 9.42278 94.1831 9.36809 94.0181 9.36809C93.8633 9.36809 93.7565 9.42366 93.6975 9.5348C93.6384 9.64594 93.6091 9.76317 93.6091 9.88649ZM93.1894 14.2214L96.8574 8.88611H97.5401L93.8721 14.2214H93.1894ZM84.0547 23.0246V17.6893H87.6496V18.6194H85.1826V19.8907H87.4648V20.8207H85.1826V22.0946H87.6603V23.0246H84.0547ZM88.3433 18.6194V17.6893H92.7251V18.6194H91.0917V23.0246H89.9766V18.6194H88.3433ZM93.4469 23.0246V17.6893H96.9792V18.6194H94.5749V19.8907H96.7448V20.8207H94.5749V23.0246H93.4469ZM98.6474 17.6893V18.252C98.6474 18.4118 98.6159 18.5751 98.5535 18.7418C98.4926 18.9068 98.4112 19.0631 98.3085 19.2107C98.2062 19.3566 98.0943 19.4808 97.9725 19.5833L97.4828 19.2941C97.5698 19.1569 97.6461 19.0049 97.7121 18.8382C97.78 18.6715 97.8137 18.4778 97.8137 18.2572V17.6893H98.6474ZM102.214 20.1642L101.198 20.2267C101.181 20.1399 101.144 20.0617 101.086 19.9923C101.029 19.921 100.953 19.8646 100.86 19.8229C100.768 19.7795 100.657 19.7578 100.529 19.7578C100.357 19.7578 100.212 19.7943 100.094 19.8672C99.9756 19.9384 99.9166 20.0339 99.9166 20.1538C99.9166 20.2493 99.9547 20.3301 100.031 20.3961C100.108 20.462 100.239 20.515 100.425 20.555L101.149 20.7009C101.538 20.7808 101.828 20.9093 102.019 21.0864C102.21 21.2636 102.306 21.4963 102.306 21.7846C102.306 22.0468 102.228 22.2769 102.074 22.4749C101.921 22.6729 101.711 22.8275 101.443 22.9386C101.178 23.0481 100.871 23.1028 100.524 23.1028C99.994 23.1028 99.5718 22.9925 99.2574 22.7719C98.9449 22.5496 98.7615 22.2474 98.708 21.8653L99.7995 21.808C99.8326 21.9696 99.9122 22.0929 100.039 22.178C100.166 22.2613 100.328 22.303 100.526 22.303C100.721 22.303 100.877 22.2657 100.995 22.191C101.115 22.1146 101.176 22.0164 101.178 21.8966C101.176 21.7959 101.133 21.7134 101.05 21.6491C100.966 21.5831 100.838 21.5328 100.664 21.498L99.9712 21.3599C99.5806 21.2818 99.2897 21.1463 99.0986 20.9536C98.9093 20.7608 98.8147 20.515 98.8147 20.2163C98.8147 19.9593 98.884 19.7378 99.023 19.552C99.1639 19.3662 99.3609 19.2229 99.6143 19.1222C99.8696 19.0214 100.169 18.9711 100.51 18.9711C101.016 18.9711 101.414 19.0779 101.704 19.2915C101.996 19.5051 102.166 19.796 102.214 20.1642Z" fill="#29B41A"/>
</svg>
