<svg width="21" height="21" viewBox="0 0 21 21" fill="none" xmlns="http://www.w3.org/2000/svg">
<path d="M8.15662 14.0898C9.82328 14.0898 11.2399 13.5065 12.4066 12.3398C13.5733 11.1732 14.1566 9.75651 14.1566 8.08984C14.1566 6.42318 13.5733 5.00651 12.4066 3.83984C11.2399 2.67318 9.82328 2.08984 8.15662 2.08984C6.48995 2.08984 5.07328 2.67318 3.90662 3.83984C2.73995 5.00651 2.15662 6.42318 2.15662 8.08984C2.15662 9.75651 2.73995 11.1732 3.90662 12.3398C5.07328 13.5065 6.48995 14.0898 8.15662 14.0898ZM7.15662 11.0898V4.08984H9.15662V11.0898H7.15662ZM3.65662 11.0898V6.08984H5.65662V11.0898H3.65662ZM10.6566 11.0898V7.08984H12.6566V11.0898H10.6566ZM18.7566 20.0898L13.0816 14.4148C12.3983 14.9482 11.6399 15.3607 10.8066 15.6523C9.97328 15.944 9.08995 16.0898 8.15662 16.0898C5.92328 16.0898 4.03162 15.3148 2.48162 13.7648C0.931616 12.2148 0.156616 10.3232 0.156616 8.08984C0.156616 5.85651 0.931616 3.96484 2.48162 2.41484C4.03162 0.864844 5.92328 0.0898438 8.15662 0.0898438C10.3899 0.0898438 12.2816 0.864844 13.8316 2.41484C15.3816 3.96484 16.1566 5.85651 16.1566 8.08984C16.1566 9.02318 16.0108 9.90651 15.7191 10.7398C15.4275 11.5732 15.0149 12.3315 14.4816 13.0148L20.1566 18.6898L18.7566 20.0898Z" fill="#734012"/>
</svg>
