<svg width="75" height="73" viewBox="0 0 75 73" fill="none" xmlns="http://www.w3.org/2000/svg">
<path d="M58.5831 26.312H52.073L56.2121 31.4236H63.902L56.7699 40.2331L53.5206 36.2072L53.5469 36.1733L50.2938 32.1511L47.0331 36.177L56.8039 48.2284L74.5511 26.312H58.5831Z" fill="url(#paint0_linear_765_9118)"/>
<path d="M10.6491 31.4236H18.3391L22.4781 26.312H0L21.0079 52.2656L21.0041 52.2694L24.2498 56.2765L27.5142 52.2468L10.6491 31.4236Z" fill="url(#paint1_linear_765_9118)"/>
<path d="M34.0319 44.195L27.5331 36.1431L37.2624 24.1257L43.7763 32.1625L47.0408 28.1328L37.2775 16.0776L21.0042 36.1733L30.7674 48.2285L34.0206 52.2468L40.5118 44.2327L47.0181 52.2958L37.2888 64.3133L30.7674 56.2652L27.503 60.2949L37.27 72.3576L53.5471 52.2694L40.5231 36.1808L34.0319 44.195Z" fill="url(#paint2_linear_765_9118)"/>
<path d="M37.2775 8.03676L47.9341 21.1964H54.4404L37.2775 0L20.1108 21.1964H26.6209L37.2775 8.03676Z" fill="url(#paint3_linear_765_9118)"/>
<path d="M58.5831 26.312H52.073L56.2121 31.4236H63.902L56.7699 40.2331L53.5206 36.2072L53.5469 36.1733L50.2938 32.1511L47.0331 36.177L56.8039 48.2284L74.5511 26.312H58.5831Z" fill="url(#paint4_linear_765_9118)"/>
<path d="M10.6491 31.4236H18.3391L22.4781 26.312H0L21.0079 52.2656L21.0041 52.2694L24.2498 56.2765L27.5142 52.2468L10.6491 31.4236Z" fill="url(#paint5_linear_765_9118)"/>
<path d="M34.0319 44.195L27.5331 36.1431L37.2624 24.1257L43.7763 32.1625L47.0408 28.1328L37.2775 16.0776L21.0042 36.1733L30.7674 48.2285L34.0206 52.2468L40.5118 44.2327L47.0181 52.2958L37.2888 64.3133L30.7674 56.2652L27.503 60.2949L37.27 72.3576L53.5471 52.2694L40.5231 36.1808L34.0319 44.195Z" fill="url(#paint6_linear_765_9118)"/>
<path d="M37.2775 8.03676L47.9341 21.1964H54.4404L37.2775 0L20.1108 21.1964H26.6209L37.2775 8.03676Z" fill="url(#paint7_linear_765_9118)"/>
<path d="M37.2775 8.03676L47.9341 21.1964H54.4404L37.2775 0L20.1108 21.1964H26.6209L37.2775 8.03676Z" fill="url(#paint8_linear_765_9118)"/>
<defs>
<linearGradient id="paint0_linear_765_9118" x1="47.0293" y1="36.2939" x2="47.0293" y2="37.7037" gradientUnits="userSpaceOnUse">
<stop offset="1" stop-color="#E93E3A"/>
<stop offset="0.89" stop-color="#ED683C"/>
<stop offset="0.67" stop-color="#F3903F"/>
<stop offset="0.28" stop-color="#FDC70C"/>
<stop offset="0.2" stop-color="#FDCA0F"/>
<stop offset="0.12" stop-color="#FDD51B"/>
<stop offset="0.04" stop-color="#FEE62D"/>
<stop stop-color="#FFF33B"/>
</linearGradient>
<linearGradient id="paint1_linear_765_9118" x1="-0.719996" y1="40.0333" x2="-0.719996" y2="41.5412" gradientUnits="userSpaceOnUse">
<stop offset="1" stop-color="#E93E3A"/>
<stop offset="0.89" stop-color="#ED683C"/>
<stop offset="0.67" stop-color="#F3903F"/>
<stop offset="0.28" stop-color="#FDC70C"/>
<stop offset="0.2" stop-color="#FDCA0F"/>
<stop offset="0.12" stop-color="#FDD51B"/>
<stop offset="0.04" stop-color="#FEE62D"/>
<stop stop-color="#FFF33B"/>
</linearGradient>
<linearGradient id="paint2_linear_765_9118" x1="20.6272" y1="43.3431" x2="20.6272" y2="45.0884" gradientUnits="userSpaceOnUse">
<stop offset="1" stop-color="#E93E3A"/>
<stop offset="0.89" stop-color="#ED683C"/>
<stop offset="0.67" stop-color="#F3903F"/>
<stop offset="0.28" stop-color="#FDC70C"/>
<stop offset="0.2" stop-color="#FDCA0F"/>
<stop offset="0.12" stop-color="#FDD51B"/>
<stop offset="0.04" stop-color="#FEE62D"/>
<stop stop-color="#FFF33B"/>
</linearGradient>
<linearGradient id="paint3_linear_765_9118" x1="20.6875" y1="10.1779" x2="20.6875" y2="11.9722" gradientUnits="userSpaceOnUse">
<stop offset="1" stop-color="#E93E3A"/>
<stop offset="0.89" stop-color="#ED683C"/>
<stop offset="0.67" stop-color="#F3903F"/>
<stop offset="0.28" stop-color="#FDC70C"/>
<stop offset="0.2" stop-color="#FDCA0F"/>
<stop offset="0.12" stop-color="#FDD51B"/>
<stop offset="0.04" stop-color="#FEE62D"/>
<stop stop-color="#FFF33B"/>
</linearGradient>
<linearGradient id="paint4_linear_765_9118" x1="53.9126" y1="31.7911" x2="53.9126" y2="31.7911" gradientUnits="userSpaceOnUse">
<stop offset="1" stop-color="#950054"/>
<stop offset="0.88" stop-color="#980250"/>
<stop offset="0.77" stop-color="#A40B45"/>
<stop offset="0.67" stop-color="#B71933"/>
<stop offset="0.56" stop-color="#D12E1A"/>
<stop offset="0.48" stop-color="#ED4300"/>
<stop offset="0.37" stop-color="#EF4D00"/>
<stop offset="0.19" stop-color="#F66A00"/>
<stop stop-color="#FF9000"/>
</linearGradient>
<linearGradient id="paint5_linear_765_9118" x1="6.87856" y1="33.8031" x2="6.87856" y2="33.8031" gradientUnits="userSpaceOnUse">
<stop offset="1" stop-color="#950054"/>
<stop offset="0.88" stop-color="#980250"/>
<stop offset="0.77" stop-color="#A40B45"/>
<stop offset="0.67" stop-color="#B71933"/>
<stop offset="0.56" stop-color="#D12E1A"/>
<stop offset="0.48" stop-color="#ED4300"/>
<stop offset="0.37" stop-color="#EF4D00"/>
<stop offset="0.19" stop-color="#F66A00"/>
<stop stop-color="#FF9000"/>
</linearGradient>
<linearGradient id="paint6_linear_765_9118" x1="29.1399" y1="30.1476" x2="29.1399" y2="30.1476" gradientUnits="userSpaceOnUse">
<stop offset="1" stop-color="#950054"/>
<stop offset="0.88" stop-color="#980250"/>
<stop offset="0.77" stop-color="#A40B45"/>
<stop offset="0.67" stop-color="#B71933"/>
<stop offset="0.56" stop-color="#D12E1A"/>
<stop offset="0.48" stop-color="#ED4300"/>
<stop offset="0.37" stop-color="#EF4D00"/>
<stop offset="0.19" stop-color="#F66A00"/>
<stop stop-color="#FF9000"/>
</linearGradient>
<linearGradient id="paint7_linear_765_9118" x1="28.6932" y1="5.2991" x2="28.6932" y2="5.2991" gradientUnits="userSpaceOnUse">
<stop offset="1" stop-color="#950054"/>
<stop offset="0.88" stop-color="#980250"/>
<stop offset="0.77" stop-color="#A40B45"/>
<stop offset="0.67" stop-color="#B71933"/>
<stop offset="0.56" stop-color="#D12E1A"/>
<stop offset="0.48" stop-color="#ED4300"/>
<stop offset="0.37" stop-color="#EF4D00"/>
<stop offset="0.19" stop-color="#F66A00"/>
<stop stop-color="#FF9000"/>
</linearGradient>
<linearGradient id="paint8_linear_765_9118" x1="28.6932" y1="5.2991" x2="28.6932" y2="5.2991" gradientUnits="userSpaceOnUse">
<stop offset="1" stop-color="#950054"/>
<stop offset="0.88" stop-color="#980250"/>
<stop offset="0.77" stop-color="#A40B45"/>
<stop offset="0.67" stop-color="#B71933"/>
<stop offset="0.56" stop-color="#D12E1A"/>
<stop offset="0.48" stop-color="#ED4300"/>
<stop offset="0.37" stop-color="#EF4D00"/>
<stop offset="0.19" stop-color="#F66A00"/>
<stop stop-color="#FF9000"/>
</linearGradient>
</defs>
</svg>
