<svg width="21" height="21" viewBox="0 0 21 21" fill="none" xmlns="http://www.w3.org/2000/svg">
<path d="M4.60106 15.6454H6.82328V10.0898H4.60106V15.6454ZM13.4899 15.6454H15.7122V4.53429H13.4899V15.6454ZM9.04551 15.6454H11.2677V12.3121H9.04551V15.6454ZM9.04551 10.0898H11.2677V7.86762H9.04551V10.0898ZM2.37884 20.0898C1.76773 20.0898 1.24458 19.8723 0.809394 19.4371C0.374209 19.0019 0.156616 18.4787 0.156616 17.8676V2.31207C0.156616 1.70095 0.374209 1.17781 0.809394 0.742622C1.24458 0.307436 1.76773 0.0898438 2.37884 0.0898438H17.9344C18.5455 0.0898438 19.0687 0.307436 19.5038 0.742622C19.939 1.17781 20.1566 1.70095 20.1566 2.31207V17.8676C20.1566 18.4787 19.939 19.0019 19.5038 19.4371C19.0687 19.8723 18.5455 20.0898 17.9344 20.0898H2.37884ZM2.37884 17.8676H17.9344V2.31207H2.37884V17.8676Z" fill="#734012"/>
</svg>
