<svg width="53" height="53" viewBox="0 0 53 53" fill="none" xmlns="http://www.w3.org/2000/svg">
<circle cx="26.1973" cy="26.1973" r="26.1973" fill="#373737"/>
<path d="M35 25.5C35.0034 26.8199 34.695 28.1219 34.1 29.3C33.3944 30.7118 32.3097 31.8992 30.9674 32.7293C29.6251 33.5594 28.0782 33.9994 26.5 34C25.1801 34.0034 23.8781 33.6951 22.7 33.1L17 35L18.9 29.3C18.3049 28.1219 17.9966 26.8199 18 25.5C18.0006 23.9218 18.4406 22.3749 19.2707 21.0326C20.1008 19.6903 21.2882 18.6056 22.7 17.9C23.8781 17.305 25.1801 16.9966 26.5 17H27C29.0843 17.115 31.053 17.9948 32.5291 19.4709C34.0052 20.947 34.885 22.9157 35 25V25.5Z" stroke="white" stroke-width="2" stroke-linecap="round" stroke-linejoin="round"/>
<path d="M26.4874 28.8105C26.1713 28.8105 25.9151 28.5543 25.9151 28.2382V22.7286C25.9151 22.4125 26.1713 22.1562 26.4874 22.1562C26.8035 22.1562 27.0597 22.4125 27.0597 22.7286V28.2382C27.0597 28.5543 26.8035 28.8105 26.4874 28.8105ZM23.5418 26.0176C23.2426 26.0176 23 25.775 23 25.4758C23 25.1765 23.2426 24.934 23.5418 24.934H29.433C29.7322 24.934 29.9748 25.1765 29.9748 25.4758C29.9748 25.775 29.7322 26.0176 29.433 26.0176H23.5418Z" fill="white"/>
</svg>
