<svg width="31" height="34" viewBox="0 0 31 34" fill="none" xmlns="http://www.w3.org/2000/svg">
<path d="M7.66465 26.0391C6.92632 26.0391 6.30007 25.782 5.7859 25.2679C5.27173 24.7537 5.01465 24.1275 5.01465 23.3891V9.72813C5.01465 8.98979 5.27173 8.36354 5.7859 7.84937C6.30007 7.33521 6.92632 7.07812 7.66465 7.07812H21.3256C22.064 7.07812 22.6902 7.33521 23.2044 7.84937C23.7186 8.36354 23.9756 8.98979 23.9756 9.72813V23.3891C23.9756 24.1275 23.7186 24.7537 23.2044 25.2679C22.6902 25.782 22.064 26.0391 21.3256 26.0391H7.66465ZM14.4951 23.3891H21.3256V9.72813H14.4951V23.3891Z" fill="#734012"/>
</svg>
