<svg width="57" height="58" viewBox="0 0 57 58" fill="none" xmlns="http://www.w3.org/2000/svg">
<path d="M1.8125 18.2788C0.601237 18.2788 -0.00439453 17.6533 -0.00439453 16.4023V8.74756C-0.00439453 5.86833 0.730306 3.70394 2.19971 2.25439C3.66911 0.80485 5.85335 0.0800781 8.75244 0.0800781H16.4072C17.6582 0.0800781 18.2837 0.68571 18.2837 1.89697C18.2837 3.12809 17.6582 3.74365 16.4072 3.74365H8.8418C7.15397 3.74365 5.86328 4.1805 4.96973 5.0542C4.09603 5.9279 3.65918 7.22852 3.65918 8.95605V16.4023C3.65918 17.6533 3.04362 18.2788 1.8125 18.2788ZM55.1279 18.2788C53.9167 18.2788 53.311 17.6533 53.311 16.4023V8.95605C53.311 7.22852 52.8543 5.9279 51.9409 5.0542C51.0275 4.1805 49.7467 3.74365 48.0986 3.74365H40.563C39.312 3.74365 38.6865 3.12809 38.6865 1.89697C38.6865 0.68571 39.312 0.0800781 40.563 0.0800781H48.188C51.1069 0.0800781 53.3011 0.814779 54.7705 2.28418C56.2399 3.73372 56.9746 5.88818 56.9746 8.74756V16.4023C56.9746 17.6533 56.359 18.2788 55.1279 18.2788ZM8.75244 57.0293C5.85335 57.0293 3.66911 56.2946 2.19971 54.8252C0.730306 53.3757 -0.00439453 51.2113 -0.00439453 48.332V40.707C-0.00439453 39.4561 0.601237 38.8306 1.8125 38.8306C3.04362 38.8306 3.65918 39.4561 3.65918 40.707V48.1533C3.65918 49.8809 4.09603 51.1815 4.96973 52.0552C5.86328 52.9289 7.15397 53.3657 8.8418 53.3657H16.4072C17.6582 53.3657 18.2837 53.9813 18.2837 55.2124C18.2837 56.4237 17.6582 57.0293 16.4072 57.0293H8.75244ZM40.563 57.0293C39.312 57.0293 38.6865 56.4237 38.6865 55.2124C38.6865 53.9813 39.312 53.3657 40.563 53.3657H48.0986C49.7467 53.3657 51.0275 52.9289 51.9409 52.0552C52.8543 51.1815 53.311 49.8809 53.311 48.1533V40.707C53.311 39.4561 53.9167 38.8306 55.1279 38.8306C56.359 38.8306 56.9746 39.4561 56.9746 40.707V48.332C56.9746 51.2113 56.2399 53.3757 54.7705 54.8252C53.3011 56.2946 51.1069 57.0293 48.188 57.0293H40.563ZM17.3901 26.1719C16.8937 26.1719 16.4767 26.013 16.1392 25.6953C15.8215 25.3577 15.6626 24.9308 15.6626 24.4146V19.917C15.6626 19.4206 15.8215 19.0036 16.1392 18.666C16.4767 18.3285 16.8937 18.1597 17.3901 18.1597C17.9064 18.1597 18.3333 18.3285 18.6709 18.666C19.0085 19.0036 19.1772 19.4206 19.1772 19.917V24.4146C19.1772 24.9308 19.0085 25.3577 18.6709 25.6953C18.3333 26.013 17.9064 26.1719 17.3901 26.1719ZM26.0576 33.1416C25.4222 33.1416 24.9357 33.0026 24.5981 32.7246C24.2804 32.4268 24.1216 32.0296 24.1216 31.5332C24.1216 31.0964 24.2606 30.7389 24.5386 30.4609C24.8166 30.1631 25.174 30.0142 25.6108 30.0142H26.6235C26.842 30.0142 27.0306 29.9447 27.1895 29.8057C27.3682 29.6667 27.4575 29.4582 27.4575 29.1802V19.6489C27.4575 19.2121 27.5965 18.8547 27.8745 18.5767C28.1724 18.2788 28.5496 18.1299 29.0063 18.1299C29.4432 18.1299 29.8006 18.2788 30.0786 18.5767C30.3765 18.8547 30.5254 19.2121 30.5254 19.6489V28.9121C30.5254 30.3021 30.168 31.3545 29.4531 32.0693C28.7383 32.7842 27.6958 33.1416 26.3257 33.1416C26.2661 33.1416 26.2165 33.1416 26.1768 33.1416C26.137 33.1416 26.0973 33.1416 26.0576 33.1416ZM39.3418 26.1719C38.8454 26.1719 38.4284 26.013 38.0908 25.6953C37.7533 25.3577 37.5845 24.9308 37.5845 24.4146V19.917C37.5845 19.4206 37.7533 19.0036 38.0908 18.666C38.4284 18.3285 38.8454 18.1597 39.3418 18.1597C39.8581 18.1597 40.285 18.3285 40.6226 18.666C40.9601 19.0036 41.1289 19.4206 41.1289 19.917V24.4146C41.1289 24.9308 40.9601 25.3577 40.6226 25.6953C40.285 26.013 39.8581 26.1719 39.3418 26.1719ZM28.2617 42.7622C26.5342 42.7622 24.8265 42.4246 23.1387 41.7495C21.4508 41.0545 20.0112 40.0518 18.8198 38.7412C18.6808 38.5824 18.5617 38.4136 18.4624 38.2349C18.383 38.0363 18.3433 37.8278 18.3433 37.6094C18.3433 37.1527 18.4922 36.7853 18.79 36.5073C19.0879 36.2293 19.4453 36.0903 19.8623 36.0903C20.1403 36.0903 20.3786 36.1499 20.5771 36.269C20.7757 36.3882 20.9743 36.547 21.1729 36.7456C22.0664 37.6392 23.1387 38.354 24.3896 38.8901C25.6406 39.4263 26.9313 39.6943 28.2617 39.6943C29.612 39.6943 30.9126 39.4263 32.1636 38.8901C33.4344 38.3341 34.4868 37.6193 35.3208 36.7456C35.7576 36.3088 36.1945 36.0903 36.6313 36.0903C37.0682 36.0903 37.4355 36.2293 37.7334 36.5073C38.0312 36.7853 38.1802 37.1527 38.1802 37.6094C38.1802 37.8675 38.1305 38.0959 38.0312 38.2944C37.9518 38.4731 37.8426 38.632 37.7036 38.771C36.4526 40.022 34.9932 41.0049 33.3252 41.7197C31.6771 42.4147 29.9893 42.7622 28.2617 42.7622Z" fill="#C8983B"/>
</svg>
