<svg width="23" height="23" viewBox="0 0 23 23" fill="none" xmlns="http://www.w3.org/2000/svg">
<path d="M20.4563 5.78904L11.9845 14.2608C11.4348 14.8105 9.94259 14.9304 8.96946 14.9472C8.46085 14.956 8.05573 14.5521 8.06314 14.0434C8.07733 13.0703 8.19345 11.5781 8.74314 11.0284L17.2239 2.5477C17.433 2.31952 17.6862 2.13611 17.9682 2.0085C18.2502 1.88089 18.5551 1.81171 18.8646 1.80519C19.174 1.79869 19.4816 1.85493 19.7687 1.97056C20.0558 2.08619 20.3165 2.25883 20.5351 2.47799C20.7536 2.69716 20.9256 2.95833 21.0404 3.24575C21.1552 3.53318 21.2107 3.84088 21.2033 4.15032C21.196 4.45975 21.1259 4.76452 20.9976 5.04616C20.8692 5.3278 20.6851 5.58052 20.4563 5.78904Z" stroke="#734012" stroke-width="2.1" stroke-linecap="round"/>
<path d="M8.43461 3.14062H5.79932C4.73845 3.14062 3.7211 3.56204 2.97095 4.31219C2.22081 5.06234 1.79932 6.07975 1.79932 7.14062V17.1406C1.79932 18.2015 2.22081 19.2189 2.97095 19.969C3.7211 20.7192 4.73845 21.1406 5.79932 21.1406H16.7993C19.0093 21.1406 19.7993 19.3406 19.7993 17.1406V14.3301" stroke="#734012" stroke-width="2.5" stroke-linecap="round" stroke-linejoin="round"/>
</svg>
