<svg width="17" height="20" viewBox="0 0 17 20" fill="none" xmlns="http://www.w3.org/2000/svg">
<path d="M0.156738 16.9824V14.4826H1.88352V8.33244C1.88352 6.91193 2.30103 5.63905 3.13604 4.5138C3.97106 3.38871 5.07076 2.65557 6.43514 2.3144V1.76066C6.43514 1.28254 6.60251 0.876041 6.93724 0.541155C7.27196 0.206426 7.67846 0.0390625 8.15674 0.0390625C8.63501 0.0390625 9.04151 0.206426 9.37624 0.541155C9.71097 0.876041 9.87833 1.28254 9.87833 1.76066V2.3144C11.2517 2.65557 12.3537 3.38651 13.1843 4.50719C14.0147 5.62788 14.43 6.90297 14.43 8.33244V14.4826H16.1567V16.9824H0.156738ZM8.17018 19.9591C7.60732 19.9591 7.12543 19.76 6.72451 19.3617C6.32375 18.9635 6.12337 18.4848 6.12337 17.9257H10.2033C10.2033 18.4889 10.0043 18.9686 9.60618 19.3648C9.20794 19.761 8.72927 19.9591 8.17018 19.9591ZM4.38338 14.4826H11.9301V8.33244C11.9301 7.29477 11.5606 6.40645 10.8217 5.6675C10.0827 4.92855 9.19441 4.55908 8.15674 4.55908C7.11906 4.55908 6.23075 4.92855 5.4918 5.6675C4.75285 6.40645 4.38338 7.29477 4.38338 8.33244V14.4826Z" fill="#734012"/>
</svg>
