<svg width="21" height="21" viewBox="0 0 21 21" fill="none" xmlns="http://www.w3.org/2000/svg">
<path d="M2.92464 20.9532C2.10843 20.9532 1.41612 20.669 0.847719 20.1006C0.279318 19.5322 -0.00488281 18.8399 -0.00488281 18.0237V2.92171C-0.00488281 2.1055 0.279318 1.41319 0.847719 0.844788C1.41612 0.276387 2.10843 -0.0078125 2.92464 -0.0078125H18.0266C18.8428 -0.0078125 19.5351 0.276387 20.1035 0.844788C20.6719 1.41319 20.9561 2.1055 20.9561 2.92171L20.8405 18.0124C20.7499 18.7767 20.3742 19.285 19.8326 19.9084C19.2573 20.4309 18.8028 20.4859 18.1517 20.6597C18.0685 20.6819 17.983 20.6948 17.897 20.6962L2.92464 20.9532ZM10.4756 17.0237C10.4756 17.576 10.9233 18.0237 11.4756 18.0237H17.0266C17.5789 18.0237 18.0266 17.576 18.0266 17.0237V3.92171C18.0266 3.36942 17.5789 2.92171 17.0266 2.92171H11.4756C10.9233 2.92171 10.4756 3.36942 10.4756 3.92171V17.0237Z" fill="#734012"/>
</svg>
