<svg width="19" height="19" viewBox="0 0 19 19" fill="none" xmlns="http://www.w3.org/2000/svg">
<path d="M3.12034 18.4782C2.47367 18.4782 1.92516 18.253 1.47482 17.8027C1.02449 17.3523 0.799316 16.8038 0.799316 16.1571V4.19203C0.799316 3.54535 1.02449 2.99684 1.47482 2.54651C1.92516 2.09617 2.47367 1.871 3.12034 1.871H8.12982C8.51666 1.871 8.80679 1.99129 9.0002 2.23185C9.19362 2.47257 9.29033 2.7373 9.29033 3.02604C9.29033 3.31464 9.19311 3.58111 8.99867 3.82548C8.80408 4.06984 8.51133 4.19203 8.1204 4.19203H3.12034V16.1571H15.0855V11.1599C15.0855 10.7731 15.2067 10.483 15.4492 10.2895C15.6916 10.0961 15.9583 9.99941 16.2493 9.99941C16.5402 9.99941 16.8058 10.0961 17.0461 10.2895C17.2863 10.483 17.4065 10.7731 17.4065 11.1599V16.1571C17.4065 16.8038 17.1813 17.3523 16.731 17.8027C16.2806 18.253 15.7321 18.4782 15.0855 18.4782H3.12034ZM6.27738 11.8396V9.9508C6.27738 9.64104 6.33555 9.34573 6.45189 9.06487C6.56838 8.78416 6.73582 8.53461 6.9542 8.31623L14.1277 1.15521C14.3605 0.922227 14.6195 0.749536 14.9046 0.637134C15.1895 0.524878 15.4786 0.46875 15.7719 0.46875C16.0715 0.46875 16.3621 0.524878 16.6438 0.637134C16.9257 0.749536 17.1831 0.922227 17.4159 1.15521L18.1223 1.871C18.3488 2.10398 18.5183 2.36177 18.6307 2.64438C18.7431 2.92699 18.7993 3.2145 18.7993 3.50689C18.7993 3.79928 18.7453 4.0878 18.6373 4.37245C18.5294 4.65711 18.3577 4.91717 18.1223 5.15263L10.9613 12.3139C10.7429 12.5321 10.4933 12.7011 10.2126 12.8208C9.93175 12.9403 9.63644 13.0001 9.32668 13.0001H7.43789C7.11543 13.0001 6.84136 12.8873 6.61568 12.6618C6.39014 12.4361 6.27738 12.1621 6.27738 11.8396ZM8.35075 10.9267H9.40376L14.3723 5.95798L13.8505 5.43159L13.3099 4.90519L8.35075 9.85183V10.9267Z" fill="#734012"/>
</svg>
