<svg width="31" height="33" viewBox="0 0 31 33" fill="none" xmlns="http://www.w3.org/2000/svg">
<path d="M25.333 16.211C25.3364 17.5308 25.028 18.8328 24.433 20.0109C23.7274 21.4227 22.6427 22.6101 21.3004 23.4402C19.9581 24.2703 18.4112 24.7103 16.833 24.7109C15.5131 24.7144 14.2111 24.406 13.033 23.8109L7.33301 25.7109L9.233 20.0109C8.63794 18.8328 8.32956 17.5308 8.33301 16.211C8.33362 14.6327 8.77362 13.0858 9.60372 11.7435C10.4338 10.4012 11.6213 9.31653 13.033 8.61096C14.2111 8.0159 15.5131 7.70752 16.833 7.71097H17.333C19.4173 7.82596 21.386 8.70573 22.8621 10.1818C24.3382 11.6579 25.218 13.6266 25.333 15.711V16.211Z" stroke="#734012" stroke-width="2" stroke-linecap="round" stroke-linejoin="round"/>
<path d="M16.8673 19.5215C16.5512 19.5215 16.295 19.2652 16.295 18.9492V13.4395C16.295 13.1234 16.5512 12.8672 16.8673 12.8672C17.1834 12.8672 17.4396 13.1234 17.4396 13.4395V18.9492C17.4396 19.2652 17.1834 19.5215 16.8673 19.5215ZM13.9217 16.7285C13.6225 16.7285 13.3799 16.4859 13.3799 16.1867C13.3799 15.8875 13.6225 15.6449 13.9217 15.6449H19.8129C20.1121 15.6449 20.3547 15.8875 20.3547 16.1867C20.3547 16.4859 20.1121 16.7285 19.8129 16.7285H13.9217Z" fill="#734012"/>
</svg>
