<svg width="17" height="21" viewBox="0 0 17 21" fill="none" xmlns="http://www.w3.org/2000/svg">
<path d="M0.975586 17.5586V15.5586H2.97559V8.55859C2.97559 7.17526 3.39225 5.95026 4.22559 4.88359C5.05892 3.80026 6.14225 3.09193 7.47559 2.75859V2.05859C7.47559 1.64193 7.61725 1.29193 7.90059 1.00859C8.20059 0.708593 8.55892 0.558594 8.97559 0.558594C9.39225 0.558594 9.74225 0.708593 10.0256 1.00859C10.3256 1.29193 10.4756 1.64193 10.4756 2.05859V2.75859C11.8089 3.09193 12.8923 3.80026 13.7256 4.88359C14.5589 5.95026 14.9756 7.17526 14.9756 8.55859V15.5586H16.9756V17.5586H0.975586ZM8.97559 20.5586C8.42559 20.5586 7.95059 20.3669 7.55059 19.9836C7.16725 19.5836 6.97559 19.1086 6.97559 18.5586H10.9756C10.9756 19.1086 10.7756 19.5836 10.3756 19.9836C9.99225 20.3669 9.52559 20.5586 8.97559 20.5586ZM4.97559 15.5586H12.9756V8.55859C12.9756 7.45859 12.5839 6.51693 11.8006 5.73359C11.0173 4.95026 10.0756 4.55859 8.97559 4.55859C7.87559 4.55859 6.93392 4.95026 6.15059 5.73359C5.36725 6.51693 4.97559 7.45859 4.97559 8.55859V15.5586Z" fill="#734012"/>
</svg>
