<svg width="21" height="20" viewBox="0 0 21 20" fill="none" xmlns="http://www.w3.org/2000/svg">
<path d="M11.567 18.278C12.0192 18.219 12.4336 18.5378 12.4926 18.99C12.5516 19.4421 12.2328 19.8565 11.7806 19.9155C11.3531 19.9713 10.9175 20 10.4756 20C10.0339 20 9.59851 19.9713 9.17124 19.9156C8.71906 19.8566 8.40027 19.4423 8.45922 18.9901C8.51818 18.5379 8.93255 18.2191 9.38474 18.2781C9.7414 18.3246 10.1055 18.3486 10.4756 18.3486C10.8459 18.3486 11.2102 18.3246 11.567 18.278ZM1.14041 17.5323C1.22388 17.084 1.65497 16.7883 2.10328 16.8717C2.50568 16.9467 2.78509 17.3017 2.77775 17.6978C3.1739 17.6904 3.52892 17.9699 3.60385 18.3723C3.68731 18.8206 3.39153 19.2517 2.94321 19.3352L1.91111 19.5273C1.64353 19.5771 1.36859 19.4919 1.17613 19.2994C0.983678 19.107 0.898442 18.832 0.94826 18.5645L1.14041 17.5323ZM5.75547 17.1321C5.94351 17.1014 6.1366 17.1366 6.30184 17.2322C6.61582 17.4138 6.94264 17.5755 7.28057 17.7157C7.70182 17.8903 7.90174 18.3734 7.7271 18.7946C7.55245 19.2159 7.06939 19.4158 6.64814 19.2411C6.33952 19.1132 6.03877 18.9702 5.74674 18.8132L5.00743 18.9508C4.55913 19.0343 4.12805 18.7386 4.04459 18.2902C3.96112 17.8419 4.25688 17.4108 4.70519 17.3274L5.7373 17.1352L5.75547 17.1321ZM15.5576 16.6242C15.9192 16.3463 16.4376 16.4142 16.7155 16.7758C16.9933 17.1373 16.9254 17.6557 16.5639 17.9336C15.876 18.4622 15.1171 18.9035 14.3037 19.2408C13.8824 19.4155 13.3994 19.2157 13.2247 18.7944C13.05 18.3732 13.2499 17.8901 13.6711 17.7154C14.3494 17.4342 14.9829 17.0658 15.5576 16.6242ZM1.68095 12.7485C2.10219 12.5738 2.58526 12.7737 2.75991 13.195C2.90001 13.5329 3.06174 13.8597 3.24336 14.1737C3.34203 14.3443 3.37643 14.5445 3.34036 14.7383L3.14821 15.7704C3.06474 16.2187 2.63365 16.5145 2.18534 16.431C1.73703 16.3475 1.44127 15.9164 1.52474 15.4681L1.66235 14.7288C1.50537 14.4368 1.3624 14.1361 1.23446 13.8274C1.05981 13.4062 1.25971 12.9231 1.68095 12.7485ZM18.191 13.1955C18.3657 12.7743 18.8488 12.5744 19.27 12.7491C19.6912 12.9238 19.8911 13.4069 19.7164 13.8281C19.3791 14.6415 18.9378 15.4004 18.4092 16.0883C18.1313 16.4499 17.6129 16.5177 17.2513 16.2399C16.8898 15.962 16.8219 15.4436 17.0998 15.0821C17.5414 14.5073 17.9098 13.8738 18.191 13.1955ZM18.8242 9.99999C18.8242 9.62968 18.8001 9.2654 18.7536 8.90856C18.6946 8.45637 19.0134 8.04198 19.4655 7.98299C19.9177 7.92401 20.3321 8.24275 20.3911 8.69493C20.4469 9.12242 20.4756 9.55806 20.4756 9.99999C20.4756 10.4419 20.4468 10.8775 20.3911 11.305C20.3321 11.7572 19.9177 12.076 19.4655 12.017C19.0134 11.958 18.6946 11.5436 18.7536 11.0914C18.8002 10.7346 18.8242 10.3703 18.8242 9.99999ZM0.475586 9.99999C0.475586 9.55807 0.504302 9.12244 0.560063 8.69496C0.619046 8.24277 1.03344 7.92401 1.48563 7.98299C1.93781 8.04198 2.25655 8.45638 2.19757 8.90856C2.15102 9.2654 2.12696 9.62968 2.12696 9.99999C2.12696 10.3701 2.15099 10.7342 2.19749 11.0909C2.25644 11.543 1.93766 11.9574 1.48547 12.0164C1.03328 12.0753 0.618935 11.7565 0.559982 11.3043C0.504278 10.8771 0.475586 10.4417 0.475586 9.99999ZM2.54198 3.9117C2.81985 3.55012 3.33822 3.48227 3.6998 3.76013C4.06138 4.03799 4.12925 4.55637 3.85139 4.91795C3.40973 5.49269 3.04139 6.12618 2.76012 6.80445C2.58544 7.22568 2.10237 7.42557 1.68114 7.25089C1.25991 7.07621 1.06005 6.59314 1.23472 6.17191C1.57204 5.35848 2.01339 4.59955 2.54198 3.9117ZM17.2513 3.76013C17.6129 3.48227 18.1313 3.55014 18.4092 3.91172C18.9378 4.59958 19.3791 5.35849 19.7164 6.17191C19.8911 6.59314 19.6912 7.07621 19.27 7.25089C18.8488 7.42556 18.3657 7.2257 18.191 6.80448C17.9098 6.12621 17.5414 5.49269 17.0998 4.91795C16.8219 4.55637 16.8898 4.03799 17.2513 3.76013ZM13.2247 1.20555C13.3994 0.784327 13.8824 0.58446 14.3037 0.759138C15.1171 1.09645 15.876 1.53781 16.5639 2.0664C16.9254 2.34426 16.9933 2.86263 16.7155 3.22421C16.4376 3.5858 15.9192 3.65367 15.5576 3.3758C14.9829 2.93414 14.3494 2.56583 13.6711 2.28456C13.2499 2.10988 13.05 1.62678 13.2247 1.20555ZM6.64749 0.759138C7.06873 0.584463 7.5518 0.784323 7.72648 1.20555C7.90115 1.62678 7.70129 2.10985 7.28006 2.28454C6.60179 2.5658 5.96828 2.93414 5.39353 3.3758C5.03195 3.65367 4.51358 3.58579 4.23572 3.22421C3.95786 2.86263 4.02573 2.34426 4.38731 2.0664C5.07516 1.53781 5.83407 1.09645 6.64749 0.759138ZM10.4756 0C10.9175 0 11.3531 0.028714 11.7806 0.0844771C12.2328 0.143461 12.5516 0.557859 12.4926 1.01004C12.4336 1.46222 12.0192 1.78097 11.567 1.72198C11.2102 1.67543 10.8459 1.65138 10.4756 1.65138C10.1053 1.65138 9.74099 1.67544 9.38414 1.72198C8.93196 1.78097 8.51757 1.46222 8.45858 1.01004C8.39959 0.557859 8.71836 0.143461 9.17055 0.0844771C9.59803 0.0287159 10.0337 3.72962e-07 10.4756 0Z" fill="#734012"/>
</svg>
