<svg width="14" height="21" viewBox="0 0 14 21" fill="none" xmlns="http://www.w3.org/2000/svg">
<path d="M13.4067 13.8613C13.4067 15.624 12.7663 17.1078 11.4855 18.3126C10.2047 19.5174 8.67401 20.1198 6.89344 20.1198C5.11287 20.1198 3.58661 19.5174 2.31466 18.3126C1.04271 17.1078 0.406738 15.624 0.406738 13.8613V4.78045C0.406738 3.49473 0.87151 2.41172 1.80105 1.53141C2.7306 0.651093 3.84717 0.210938 5.15078 0.210938C6.45424 0.210938 7.5663 0.651093 8.48698 1.53141C9.4075 2.41172 9.86776 3.49473 9.86776 4.78045V13.3731C9.86776 14.1817 9.57641 14.8639 8.9937 15.4197C8.41115 15.9755 7.71107 16.2534 6.89344 16.2534C6.07566 16.2534 5.38 15.9755 4.80648 15.4197C4.2328 14.8639 3.94595 14.1817 3.94595 13.3731V4.58741H6.32854V13.3731C6.32854 13.5252 6.38244 13.6484 6.49025 13.7426C6.59789 13.8369 6.73229 13.8841 6.89344 13.8841C7.05443 13.8841 7.19326 13.8392 7.30993 13.7492C7.4266 13.6595 7.48493 13.5341 7.48493 13.3731V4.79375C7.47813 4.16466 7.24685 3.63847 6.7911 3.21517C6.33551 2.79204 5.78874 2.58047 5.15078 2.58047C4.51267 2.58047 3.95965 2.78982 3.49171 3.20853C3.02361 3.62739 2.78957 4.15137 2.78957 4.78045V13.8613C2.78276 14.9674 3.18627 15.8921 4.00009 16.6355C4.81392 17.3787 5.7828 17.7503 6.90674 17.7503C8.02387 17.7503 8.98594 17.3787 9.79296 16.6355C10.5998 15.8921 11.0101 14.9674 11.0239 13.8613V4.07736H13.4067V13.8613Z" fill="#734012"/>
</svg>
