<svg width="19" height="19" viewBox="0 0 19 19" fill="none" xmlns="http://www.w3.org/2000/svg">
<path d="M9.94507 18.6954C8.70007 18.6954 7.53007 18.4592 6.43507 17.9867C5.34007 17.5142 4.38757 16.8729 3.57757 16.0629C2.76757 15.2529 2.12632 14.3004 1.65382 13.2054C1.18132 12.1104 0.945068 10.9404 0.945068 9.69543C0.945068 8.45043 1.18132 7.28043 1.65382 6.18543C2.12632 5.09044 2.76757 4.13793 3.57757 3.32793C4.38757 2.51793 5.34007 1.87668 6.43507 1.40418C7.53007 0.931685 8.70007 0.695435 9.94507 0.695435C11.1901 0.695435 12.3601 0.931685 13.4551 1.40418C14.5501 1.87668 15.5026 2.51793 16.3126 3.32793C17.1226 4.13793 17.7638 5.09044 18.2363 6.18543C18.7088 7.28043 18.9451 8.45043 18.9451 9.69543C18.9451 10.9404 18.7088 12.1104 18.2363 13.2054C17.7638 14.3004 17.1226 15.2529 16.3126 16.0629C15.5026 16.8729 14.5501 17.5142 13.4551 17.9867C12.3601 18.4592 11.1901 18.6954 9.94507 18.6954ZM9.94507 16.8954C11.9551 16.8954 13.6576 16.1979 15.0526 14.8029C16.4476 13.4079 17.1451 11.7054 17.1451 9.69543C17.1451 7.68543 16.4476 5.98293 15.0526 4.58793C13.6576 3.19293 11.9551 2.49543 9.94507 2.49543C7.93507 2.49543 6.23257 3.19293 4.83757 4.58793C3.44257 5.98293 2.74507 7.68543 2.74507 9.69543C2.74507 11.7054 3.44257 13.4079 4.83757 14.8029C6.23257 16.1979 7.93507 16.8954 9.94507 16.8954ZM9.94507 15.0954C8.44507 15.0954 7.17007 14.5704 6.12007 13.5204C5.07007 12.4704 4.54507 11.1954 4.54507 9.69543C4.54507 8.19543 5.07007 6.92043 6.12007 5.87043C7.17007 4.82043 8.44507 4.29543 9.94507 4.29543C11.4451 4.29543 12.7201 4.82043 13.7701 5.87043C14.8201 6.92043 15.3451 8.19543 15.3451 9.69543C15.3451 11.1954 14.8201 12.4704 13.7701 13.5204C12.7201 14.5704 11.4451 15.0954 9.94507 15.0954ZM9.94507 13.2954C10.9351 13.2954 11.7826 12.9429 12.4876 12.2379C13.1926 11.5329 13.5451 10.6854 13.5451 9.69543C13.5451 8.70543 13.1926 7.85793 12.4876 7.15294C11.7826 6.44794 10.9351 6.09543 9.94507 6.09543C8.95507 6.09543 8.10757 6.44794 7.40257 7.15294C6.69757 7.85793 6.34507 8.70543 6.34507 9.69543C6.34507 10.6854 6.69757 11.5329 7.40257 12.2379C8.10757 12.9429 8.95507 13.2954 9.94507 13.2954ZM9.94507 11.4954C9.45007 11.4954 9.02632 11.3192 8.67382 10.9667C8.32132 10.6142 8.14507 10.1904 8.14507 9.69543C8.14507 9.20043 8.32132 8.77668 8.67382 8.42418C9.02632 8.07168 9.45007 7.89543 9.94507 7.89543C10.4401 7.89543 10.8638 8.07168 11.2163 8.42418C11.5688 8.77668 11.7451 9.20043 11.7451 9.69543C11.7451 10.1904 11.5688 10.6142 11.2163 10.9667C10.8638 11.3192 10.4401 11.4954 9.94507 11.4954Z" fill="black"/>
</svg>
